Coordinates
version=1
nRows=17
nColumns=38
inDegrees=no

Units are S.I. units (second, meters, Newtons, ...)
If the header above contains a line with 'inDegrees', this indicates whether rotational values are in degrees (yes) or radians (no).

endheader
time	pelvis_tilt	pelvis_list	pelvis_rotation	pelvis_tx	pelvis_ty	pelvis_tz	hip_flexion_r	hip_adduction_r	hip_rotation_r	knee_angle_r	ankle_angle_r	subtalar_angle_r	mtp_angle_r	hip_flexion_l	hip_adduction_l	hip_rotation_l	knee_angle_l	ankle_angle_l	subtalar_angle_l	mtp_angle_l	lumbar_extension	lumbar_bending	lumbar_rotation	arm_flex_r	arm_add_r	arm_rot_r	elbow_flex_r	pro_sup_r	wrist_flex_r	wrist_dev_r	arm_flex_l	arm_add_l	arm_rot_l	elbow_flex_l	pro_sup_l	wrist_flex_l	wrist_dev_l
0.92	-0.91051	1.47431	-0.645004	0.856757	0.517552	0.955394	0.542954	0.0107259	-0.233567	0.368009	0.236492	0	0	-0.343852	-0.0350635	0.696214	0	-0.698132	0	0	-0.162755	0.142855	-0.0375399	0.277035	-0.437769	-0.00503444	1.20726	1.01802	0	0	0.242187	-0.22806	-0.109911	1.22754	1.02982	0	0
0.93	-0.892891	1.47219	-0.655863	0.85649	0.504669	0.953657	0.537992	0.0102952	-0.246284	0.332218	0.23154	0	0	-0.361045	-0.0382028	0.695289	0	-0.698132	0	0	-0.165835	0.145423	-0.0417096	0.276284	-0.437663	-0.008455	1.20734	1.01988	0	0	0.245443	-0.226959	-0.108084	1.22544	1.03209	0	0
0.94	-0.872373	1.47099	-0.66998	0.856573	0.491809	0.951789	0.530628	0.0106023	-0.256081	0.294926	0.226297	0	0	-0.378721	-0.0410386	0.694844	0	-0.698132	0	0	-0.167065	0.146608	-0.0463954	0.27493	-0.436756	-0.0106391	1.20633	1.02158	0	0	0.247188	-0.226755	-0.10621	1.22288	1.03288	0	0
0.95	-0.853886	1.47129	-0.682439	0.856361	0.478467	0.949775	0.522221	0.0111279	-0.260433	0.256078	0.2212	0	0	-0.395326	-0.042912	0.694473	0	-0.698132	0	0	-0.166147	0.146397	-0.0518642	0.273422	-0.43539	-0.0116491	1.20474	1.02303	0	0	0.247476	-0.227249	-0.105066	1.22042	1.03345	0	0
0.96	-0.835998	1.47317	-0.694639	0.856379	0.465077	0.947554	0.512722	0.0114681	-0.258451	0.216143	0.215951	0	0	-0.410775	-0.0437219	0.693768	0	-0.698132	0	0	-0.163901	0.145099	-0.0579699	0.272123	-0.433998	-0.0117012	1.20331	1.02391	0	0	0.24695	-0.227894	-0.104913	1.21817	1.0343	0	0
0.97	-0.811727	1.47526	-0.714425	0.855928	0.450938	0.945295	0.501076	0.0121536	-0.250563	0.176898	0.21065	0	0	-0.426814	-0.043425	0.687751	0	-0.698132	0	0	-0.161018	0.142885	-0.0633501	0.270177	-0.432451	-0.0115564	1.20208	1.02414	0	0	0.245481	-0.228357	-0.105629	1.21586	1.0351	0	0
0.98	-0.782287	1.47689	-0.740194	0.855406	0.436453	0.942986	0.488145	0.0131529	-0.240863	0.142029	0.204532	0	0	-0.443598	-0.0428989	0.679097	0	-0.698132	0	0	-0.158616	0.140703	-0.067585	0.26808	-0.431231	-0.0123318	1.2011	1.02505	0	0	0.244028	-0.228956	-0.105424	1.21377	1.03554	0	0
0.99	-0.749642	1.4781	-0.770313	0.854788	0.421701	0.940621	0.475379	0.0140093	-0.231401	0.114921	0.19865	0	0	-0.460895	-0.0422194	0.669289	0	-0.698132	0	0	-0.156708	0.138638	-0.0702032	0.265853	-0.430723	-0.0134595	1.20088	1.02652	0	0	0.242508	-0.230057	-0.103488	1.21231	1.03506	0	0
1	-0.713364	1.47867	-0.804894	0.854115	0.406683	0.938228	0.463969	0.0143248	-0.224371	0.099491	0.19567	0	0	-0.478818	-0.0415567	0.658858	0	-0.698132	0	0	-0.155463	0.136836	-0.0716339	0.263511	-0.431558	-0.0129505	1.2015	1.02622	0	0	0.241002	-0.231034	-0.101069	1.21131	1.0337	0	0
1.01	-0.667648	1.4766	-0.849277	0.853329	0.391272	0.935977	0.452496	0.0147422	-0.221415	0.0976068	0.196657	0	0	-0.499294	-0.04174	0.64472	0	-0.698132	0	0	-0.157055	0.136298	-0.0725499	0.262036	-0.434036	-0.009973	1.20278	1.02195	0	0	0.239764	-0.231294	-0.0994726	1.21082	1.03078	0	0
1.02	-0.635127	1.47691	-0.880716	0.852656	0.37563	0.933422	0.447704	0.0130335	-0.222668	0.112129	0.202633	0	0	-0.516612	-0.0411438	0.629731	0	-0.698132	0	0	-0.155225	0.135031	-0.0739801	0.26067	-0.436974	-0.00551722	1.20339	1.01557	0	0	0.237445	-0.230431	-0.100178	1.21017	1.03015	0	0
1.03	-0.596306	1.47893	-0.918919	0.852257	0.359358	0.931256	0.443717	0.00803659	-0.225113	0.135275	0.20985	0	0	-0.523599	-0.0416827	0.616549	7.10883e-07	-0.698132	0	0	-0.151411	0.132994	-0.075906	0.258759	-0.439436	-0.00204046	1.20316	1.01244	0	0	0.233195	-0.22858	-0.10185	1.20882	1.02966	0	0
1.04	-0.65163	1.48813	-0.85552	0.851889	0.344232	0.927527	0.453666	0.00403523	-0.225699	0.165977	0.218711	0	0	-0.523599	-0.0376176	0.601222	0.0265691	-0.698132	0	0	-0.138748	0.13239	-0.0828666	0.256974	-0.442924	0.00110107	1.20389	1.00908	0	0	0.232815	-0.227213	-0.102592	1.20894	1.02885	0	0
1.05	-0.614484	1.49235	-0.887132	0.851872	0.327869	0.924823	0.452845	-0.00384764	-0.231191	0.201604	0.233253	0	0	-0.523599	-0.0308545	0.569176	0.0571241	-0.698132	0	0	-0.13256	0.129523	-0.0877596	0.254167	-0.446668	0.00433058	1.20416	1.00612	0	0	0.23045	-0.22529	-0.102375	1.20714	1.02859	0	0
1.06	-0.434071	1.46752	-1.06245	0.851739	0.310561	0.924118	0.417027	-0.00637445	-0.251437	0.233878	0.237039	0	0	-0.523599	-0.0187444	0.37305	0.164565	-0.698132	0	0	-0.156878	0.132484	-0.0904643	0.254966	-0.452036	0.00958634	1.20686	0.99424	0	0	0.231663	-0.224358	-0.0990876	1.20492	1.02788	0	0
1.07	-0.481882	1.46126	-1.00998	0.850825	0.295185	0.92214	0.40869	4.86277e-05	-0.267635	0.244223	0.19476	0	0	-0.464417	-0.0321359	0.13452	0.299821	-0.698132	0	0	-0.156881	0.143227	-0.0913077	0.2537	-0.453414	0.00871058	1.20655	0.992083	0	0	0.233089	-0.223329	-0.0941235	1.20006	1.02765	0	0
1.08	-0.68835	1.46162	-0.807845	0.847602	0.280889	0.91864	0.427733	0.0219853	-0.272334	0.259074	0.119063	0	0	-0.398205	-0.0747113	-0.0303353	0.432431	-0.698132	0	0	-0.142952	0.161807	-0.0825512	0.253983	-0.454541	0.00765698	1.20648	0.987281	0	0	0.234778	-0.221621	-0.0910745	1.19753	1.02008	0	0
